<?xml version="1.0" encoding="UTF-8"?>
<svg id="_x2014_ÎÓÈ_x5F_1" xmlns="http://www.w3.org/2000/svg" version="1.1" viewBox="0 0 3000 3000">
  <!-- Generator: Adobe Illustrator 29.8.1, SVG Export Plug-In . SVG Version: 2.1.1 Build 2)  -->
  <defs>
    <style>
      .st0 {
        fill: #231f20;
      }

      .st1 {
        fill: none;
        stroke: #231f20;
        stroke-linecap: round;
        stroke-linejoin: round;
        stroke-width: 5.49px;
      }

      .st2 {
        fill: #fff;
      }

      .st3 {
        fill: #bed6c1;
      }
    </style>
  </defs>
  <rect class="st2" width="3000" height="3000"/>
  <g>
    <path class="st3" d="M1747.8,965.1c-5.07-32.59-6.7-50.93-25.96-45.08-19.26,5.85-52.43,13.5-111.26,7.39-58.83-6.11-100.61,5.08-100.61,5.08,0,0-51.36,8.54-48.15,99,3.21,90.47-2.59,160.06,72.34,215.75,20.09,14.93,51.79,47.36,124.26,20.84,102.25-37.42,94.47-270.39,89.4-302.99ZM1499.11,1044.94c-17.6-13.52-22.82-49.34-7.73-65.28,26.71-28.2,101.79-26.8,116.55,11.71,9.63,25.13-8.47,51.32-30.04,63.95-23.85,13.96-57.59,5.88-78.77-10.38ZM1705.73,1163.82c-24.5,40.08-73.19,48.92-115.02,30.34-22.33-9.91-30.56-34.78-11.07-51.82,15.63-13.66,37.28-12.39,56.92-13.25,18.02-.79,36.62-5.49,53.98-1.79,18.48,3.94,22.98,23.78,15.2,36.51ZM1743.48,1004.32c-3.83,50.56-68.7,40.49-73.5,21.34-6.74-26.88-6.69-54.21,22.57-64.44,37.25-13.02,53.33,11.37,50.93,43.1Z"/>
    <path class="st1" d="M1739.5,891.47c4.08,56.47,12.64,157.17,5.63,221.28"/>
    <path class="st1" d="M1673.88,1084.03c-27.54-43.49-24.9-55.46-22.7-105.08"/>
    <path class="st1" d="M1371.03,1038.33c-33.24-21.5-88.53-16.95-99.39,29.1-13.97,59.25,51.76,69.68,95.6,73.44"/>
    <path class="st1" d="M1298.75,1045.2c22.86-11.72,48.01,1.13,68.78,11.53"/>
    <path class="st1" d="M1315.87,1041.58c-12.66,14.88-25.56,50.52-4.71,64.1"/>
    <path class="st1" d="M1577.1,1279.81c-19.67,46.78-32.35,101.86-46.32,150.77"/>
    <path class="st1" d="M1544.01,1373.77c42.18,18.14,89.68,15.93,134.67,13.62,33.75-1.73,67.21-7.93,101-8.67,55.51-1.22,102.49,1.59,159.74,29.65"/>
    <path class="st1" d="M2386.37,1601.71c-110.85-47.57-160.98-60.4-249.43-99.55-63.02-27.89-108.44-60.01-172.75-83.42"/>
    <path class="st1" d="M2150.41,1750.89c-129.2-41.39-204.78-48.26-329.06-77.37"/>
    <path class="st0" d="M1478.18,822.46c54.12,3.76,123.72,43.7,176.59,56.07,14.57,3.41,29.99,5.98,44.94,7.29,5.83.51,16.18-1.57,21.55.43,12.41,4.63,14.9,28.47,18.23,39.3,4.2-7.07,6.35-12.24,12.54-17.94,7.92-7.29,16.37-12.79,16.71-24.44.45-15.48-12.91-28.84-25.49-36.72-24.87-15.58-188.17-40.71-216.16-45.33-21.46-3.54-53.62-16.11-57-16.11-4.65,0-17.96,30.21-31.55,55.83-21.21,39.99-60.95,62.39-91.97,96.16-46.41,50.52-39.49,77.31-47.01,92.35,1.82-3.64,33.2-5.53,37.8-4.17,10.52,3.11,23.23,9.03,33.68,13.16,19.89-10.8,62.83-.35,107.15-215.88Z"/>
    <path class="st1" d="M1340.64,1161.95c-7.5,91.4-50.79,196.18-122.01,229.12"/>
    <path class="st1" d="M1674.78,1096.41c-1.6,3.86-12.89,13.86-16.38,16.34"/>
    <path class="st1" d="M1686.87,1147.96c-30.47,7.51-60.89,10.25-92.37,8.63"/>
    <path class="st1" d="M1654.76,1179.54c-10.96-.12-25.1,4.3-35.31-1.02"/>
    <path class="st1" d="M1148.21,1397.84c-71.16-.4-142.59,17.07-214.69,15.48-55.51-1.22-102.49,17.37-159.74,45.43"/>
    <path class="st1" d="M351.17,1589.91c75.7-31.05,148.3-40.92,226.8-57.41,89.1-18.73,128.11-37.45,165.3-58.56"/>
    <path class="st1" d="M524.72,1824.28c66.68-14.38,105.48-31.62,172.44-47.17,58.69-13.63,119.58-55.31,181.4-49.27"/>
    <path class="st1" d="M1515.31,1015.01c23.2,3.4,48.52,4,70.63-5.09"/>
    <path class="st1" d="M1677.96,1006.86c14.03,4.07,37.88,3.69,52.43-4.07"/>
    <path class="st1" d="M1323.96,1212.21c-58.09-53.14-109.15-115.02-119.64-193.52-5.97-44.68.96-89.83-.69-134.67-1.62-44.07-15.05-89.73-8.78-133.76,8.21-57.61,58.45-91.34,105.03-122.43"/>
    <path class="st1" d="M1340.82,611.8c72-15.2,151.94-4.33,212.84,37.12,27.53,18.74,47.79,44.89,74.09,64.91,23.94,18.22,51.81,25.21,77.67,39.63,23.69,13.21,68.32,79.89,44.69,105.84"/>
    <path class="st1" d="M1562.32,824.92c-23.95-8.87-39.41-24.96-63.72-31.96-27.85-8.02-56.07-15.25-84.02-22.99-61.34-16.99-108.42-27.67-158.03-68.8"/>
    <path class="st1" d="M1651.21,729.3c-18.29-6.7-39.96-7.24-59.22-9.35-40.65-4.46-77.61-12.07-117.34-22.73"/>
    <path class="st1" d="M1615.9,698.75c-26.69-1.63-53.15-12.52-77.05-22.92"/>
    <path class="st1" d="M1389.57,764.44c-10.61,26.35-32.96,47.96-54.94,66.08-19.45,16.03-42.32,29.34-58.29,48.84-18.71,22.86-23.04,51.12-26.42,79.12"/>
    <path class="st1" d="M1205.99,999.09c.1-26.04.97-47.57,14.24-70.96,12.42-21.89,27.27-42.17,31.3-67.43"/>
    <path class="st1" d="M1230.66,683.47c3.66,2.81,7.82,6.22,11.24,9.17"/>
    <path class="st1" d="M1100.06,1457.42c18.33,12.84,44.3,13.07,65.91,16.36,37.97,5.79,74.7,10.45,113.19,10.65,63.42.34,122.42.11,170,44.03"/>
    <path class="st1" d="M1739.5,1157.24c-10.92,40.43-32.45,86.37-73.97,107.46-59.98,30.47-105.56,7.81-199.34-14.71"/>
    <path class="st1" d="M1070.15,1818.66c27.3-68.37,132.99-60.39,174.07-9.41,39.96-30.73,126.29-15.7,163.01,12.47"/>
    <path class="st1" d="M1542.76,1739.79c18.14-12.81,44.7,15.12,23.05,27.86-17.04,10.03-42.12-14.4-23.05-27.86Z"/>
    <path class="st1" d="M1820.01,1739.53c-10.69,19.75-46.02-3.31-26.41-18.04,10.57-7.94,33.52,4.91,26.41,18.04Z"/>
    <path class="st1" d="M1198.77,1851.58c12.06-30,58.25-27.66,81.86-13.75"/>
    <path class="st1" d="M852.08,1826.38c4.63-35.02,31.86-49.14,63.64-30.59,27.66-65.58,159.88-92.69,191.56-15.24"/>
    <path class="st1" d="M926.71,1842.42c5.78-20.73,36.8-15.25,52.97-11.46"/>
    <path class="st1" d="M1894.57,1808.04c-9.63-29.18-47.28-43.22-77.3-38.09-33.42,5.71-47.42,38.81-64.75,63.3"/>
    <path class="st1" d="M1779,1798.88c-35.26-77.96-167.28-54.19-185.39,22.92"/>
    <path class="st1" d="M1615.28,1842.42c-25.82-44.2-74.6-15.16-96.3,15.24-29.3-48.29-98.27-19.4-132.42,3.09"/>
    <path class="st1" d="M1384.15,1805.75c26.8-40.66,91.49-4.67,91.49,27.5"/>
    <path class="st1" d="M1274.8,1692.61c-15.62,24.13-50.99-7.53-25.68-23.68"/>
    <path class="st1" d="M363.33,1583.46c-36.96,17.09-74.21,34.63-110.81,52.42-22.07,10.73-49.08,22.23-66.28,39.56-29.72,29.93-22.38,74.57-17.92,111.98"/>
    <path class="st1" d="M880.97,1709.5c16.21,10.46,49.65,29.41,55.37,48.12"/>
    <path class="st1" d="M1815.11,1645.33c-9.46,19.55-11.89,35.87-12.04,57.29"/>
    <path class="st1" d="M700.96,1986.72c-57.57-55.36-119.15-106.69-176.24-162.45-29.23-28.54-58.48-60.92-96.64-78.95"/>
    <path class="st1" d="M197.21,1824.08c21.67,36.67,113.16,123.75,199.83,178.75"/>
    <path class="st1" d="M781.22,1895.05c10.58-6.11,22.85-10.23,35.31-9.17"/>
    <path class="st1" d="M1527.61,1522.26c9.17-13.84,22.15-21.53,38.16-26.84,35.81-11.89,71.29-21.24,106.3-35.8"/>
    <path class="st1" d="M1882.53,1835.54c15.55-37.22,84.74-36.75,110.75-13.75"/>
    <path class="st1" d="M1945.47,2202.73c9.33-39.75,76.42-33.3,89.89,0"/>
    <path class="st3" d="M2155.17,2026.01c-3.51-14.33-33.22,6.73-40.11,9.95-14.25,6.67-30.91,14.65-46.58,17.53-25.44,4.67-53.17.64-78.24-4.26,19.67-15.58,16.46-42.72,1.26-55.75-16.28-13.95-39.87-21.26-61.34-18.2-24.58,3.5-54.92,18.13-47.59,35.08-5.27,2.5-11.59,2.61-17.14,1.16-4.11-1.08-10.61-5.52-15.02-4.05-10.06,3.35-.62,15.7,4.78,18.57,6.02,3.2,12.35,5.71,18.99,7.29l-.17.45c-5.11,3.2-9.68,7.61-9.91,13.79-.21,5.58,2.21,7.98,7.75,6.67,5.87-1.39,10.53-6.29,17.12-5,2.23.44,3.92,1.46,5.24,2.81.65,5.2.67,8.2.67,8.2-9.03,8.58-16.1,19.13-19.34,30.94-7.64,27.8,7.66,45.51,30.04,61.75,0,0,186.84,49.24,220.98-33.1,8.86-21.38,19.81-39.16,24.51-61.22,2.01-9.43,6.41-23.2,4.1-32.63Z"/>
    <path class="st1" d="M2151.7,2023.09c-.55,8.62-13.97,19.26-20.33,24.95"/>
    <path class="st0" d="M1921.62,2008.73c-3.55-4.12-11.35-.83-9.32,4.42,2.23,5.74,15.24,2.45,9.32-4.42Z"/>
    <path class="st1" d="M2104.74,2224.24c8.08-13.12-15-28.09-26.15-19.07-18.59,15.06,15.29,36.69,26.15,19.07Z"/>
    <path class="st1" d="M1702.76,2029.26c-14.89,22.61-49.89-11.27-21.81-22.85,18.22-7.52,32.47,6.65,21.81,22.85Z"/>
    <path class="st1" d="M1257.95,1665.11c8.05-2.62,16.29.61,19.26,8.4"/>
    <path class="st1" d="M713.8,1998.95c28.9,21.79,53.34,48.29,82.16,70.11,26.1,19.76,54.75,36.68,80.55,56.46,29.84,22.87,37.83,42.71,54.85,75.5,15,28.91,38.8,52.19,58.74,78,45.88,59.41,12.34,125.06,9.23,189.95-.76,15.97.35,27.3-8.13,41.63-1.61-.31-2.88-1.03-4.54-1.34"/>
    <path class="st1" d="M421.67,2014.23c59.87,59.12,142.52,98.78,216.97,139.15,27.55,14.94,76.89,29.26,89.79,57.46,25.35,55.41,30.9,66.52,35.13,105.15"/>
    <path class="st1" d="M944.95,2353.41c.88,25.44-11.94,67.51-23.43,90.1-15.91,31.27-44.24,39.51-75.02,58.1"/>
    <path class="st1" d="M770.57,2341.19c-.11,8.28,2.76,25.12,4.23,42.78,1.83,22.06-7.51,39.3-11.24,48.89-7.3,18.8-49.76,18.33-40.13,42.78"/>
    <path class="st1" d="M723.44,2475.64c22.1-.59,62.12-6.79,75.44-24.45,18.15-24.06,23-53.41,33.71-85.56"/>
    <path class="st1" d="M763.56,2503.14c27.68-19.46,70.88-26.52,93.1-51.95,8.03-9.18,22.82-48.89,30.52-77.92"/>
    <path class="st1" d="M935.31,2185.35c182.05,82.28,389.75,120.51,584.27,165.01"/>
    <path class="st1" d="M2007.55,1910.33c13.4-42.44,99.77-14.76,115.57,15.28"/>
    <path class="st1" d="M2180.91,1928.67c20.5-8.2,66.28-2.67,70.63,24.45"/>
    <path class="st1" d="M2407.27,1613.92c43.83,25.29,76.07,48.03,105.48,69.5,47.72,34.83,43.02,72.84,30.92,126.08"/>
    <path class="st1" d="M2058.92,1733.1c55.66,12.46,529.25,142.79,616.38,168.06"/>
    <path class="st1" d="M845.43,1959.22c20.1-24.57,60.17-.02,57.79,27.5"/>
    <path class="st1" d="M2100.65,1980.61c18.62-64.37,77.96-50.71,99.52,3.06"/>
    <path class="st1" d="M2071.76,1846.16c16.1-18.15,50.45-10.23,65,5.65,23.35-18.28,66.02-15.34,70.31,18.34,6.3-.76,10.62,3.13,15.58,3.51"/>
    <path class="st1" d="M1304.5,2108.95c21.79-24.27,60.66-32.93,70.63,6.11"/>
    <path class="st1" d="M1445.72,2173.71c2.53-12.65,17.92-4.87,21.5-3.79"/>
    <path class="st1" d="M652.81,1928.67c4.13-30.71,35.08-53.09,67.42-42.78"/>
    <path class="st1" d="M855.06,1690.32c-19.08-5.07-38.46-14.95-57.79-21.39"/>
    <path class="st1" d="M1044.46,2341.19c61.03,32.08,118.44,38.89,172.57,53.9,78.96,21.89,162.18,50.55,244.77,56.11"/>
    <path class="st1" d="M1680.1,2518.42c35.62-.49,66.78,12.19,102.73,12.22"/>
    <path class="st1" d="M832.59,2510.59c-22.06,6.56-30.2,20.05-43.87-8.98"/>
    <path class="st1" d="M750.72,2501.61c-3.57-8.12-2.39-18.33,6.42-22.92"/>
    <path class="st1" d="M896.79,2341.19c-.2-19.46,7.67-30.38,1.61-50.42"/>
    <path class="st1" d="M832.59,2344.24c.66-12.21,7.32-20.11,3.21-33.61"/>
    <path class="st1" d="M950.34,2327.44c2.93-5.72,5.69-21.65,2.59-29.79-4.12-10.82-3.39-11.86-10.51-20.83"/>
    <path class="st1" d="M964.21,2385.49c-.02,22.56.01,45.11.01,67.67,0,18.15-4.69,43.93,8.01,59.14"/>
    <path class="st1" d="M1935.16,2089.47c7.91,43.29,73.43,60.79,110.92,40.54,14.23-7.69,29.15-24.88,30.46-41.1,1.12-13.94-11.71-14.62-23.4-14.71"/>
    <path class="st1" d="M1865.22,2161.53c14.88-26.48,64.57-10.34,75.44,10.69"/>
    <path class="st1" d="M75.54,2126.25c7.51-.57,15.03-1.53,22.47-3.06"/>
  </g>
</svg>