<?xml version="1.0" encoding="UTF-8"?>
<svg id="Layer_1" xmlns="http://www.w3.org/2000/svg" version="1.1" viewBox="0 0 300 105.05">
  <!-- Generator: Adobe Illustrator 29.8.1, SVG Export Plug-In . SVG Version: 2.1.1 Build 2)  -->
  <defs>
    <style>
      .st0 {
        fill: #fff;
      }
    </style>
  </defs>
  <path class="st0" d="M62.06,37.21l5.81-4.69c5.43-3.5,15.41-4.54,17.91,2.9,2.76-2.04,8.63-7.33,12.31-5.12,1.93,1.16,9.74,30.05,10.73,34.29l1.25.83c2.84-6.51,8.36-14.84,6.94-22.24-.86-4.48-6.38-8.56-.52-12.47,7.04-4.7,8.48,2.96,7.93,8.53-1.61,16.44-20.8,53.58-41.79,46.73-6.48-2.11-5.8-12.61.74-12.2,4.76.29,2.92,8.83,11.27,7.12,10.49-2.15,5.05-18.49,3.14-25.07-.96-3.31-4.91-16.4-7.53-17.68-1.11-.54-2.92-.54-4.17-.93-.08,8.07-7.49,11.63-13.78,14.78.71,3.63,6.08,12.03,9.93,12.25,1.45.08,4.44-3.52,5.02-.87.49,2.27-4.24,6.27-6.41,6.72-10.55,2.18-13.1-9.54-16.63-16.47l-4.26.98-2.39,13.82c-3.41,1.3-9.01,4.25-8.7-1.47.78-14.32,5.62-30.5,6.67-45.06.79-3.37-4.53-3.2-3.26-6.13.58-1.36,11.91-6.3,13.35-3.37l-3.54,24.82s-.02,0-.02,0ZM76.29,36.8c-6.46-5.45-16.17,7.37-16.03,13.62,5.05,1.44,23.4-7.4,16.03-13.62Z"/>
  <path class="st0" d="M252.36,48.62l2.76-6.53c4.81-10.68,22.69-17.41,31.47-8.2,3.4,3.57,5.04,12.69-.6,14.47-7.91,2.5-3.98-9.03-7.87-12.61-5.83-5.38-13.34,1.54-15.26,7.49-4.49,13.9,5.07,25.32,19.12,18.52,1.18-.57,6.41-5.42,6.98-2.62.5,2.48-6.48,7.76-8.6,8.8-13.43,6.54-29.15-.27-28.02-16.31l-2.5,6.2c-11.4,22.11-48.08,13.35-36.21-13.99,8.28-19.07,40.61-20.2,38.72,4.79h.01ZM236.54,63.42c6.74-6.27,9.82-30.38-2.94-29.66-14.43.81-17.93,34.6-1.99,32.24,1.25-.19,4.01-1.71,4.94-2.58h0Z"/>
  <path class="st0" d="M210.93,61.83c.59,9.01-15.5,12.67-15.31,1.79-3.74,2.77-6.36,6.07-11.4,6.61-15.34,1.65-18.46-12.86-13.97-24.77,4.53-12,17.6-19.58,29.87-13.65-.29-3.39,2.41-9.39.54-12.24-.87-1.33-3.62-1.41-1.78-4.15.86-1.28,12.76-6.05,13.21-1.96l-7.09,49.18,1.43,1.04,4.49-1.84h0ZM180.52,62.23c12.58,12.21,27.62-30.01,8.49-28.03-9.63,1-14.75,21.96-8.49,28.03Z"/>
  <path class="st0" d="M137.7,30.01l-1.2,10.81c4.12-4.95,7.62-10.19,14.71-10.8,16.37-1.4,11.5,16.52,11.11,26.71-.07,1.75-.73,6.88,1.47,6.91l4.52-1.81c.24,8.28-13.88,12.64-15,2.7-.69-6.09,2.89-23.55-.32-27.3-2.95-3.45-8.18.09-10.5,2.67-6.6,7.35-7.44,18.94-9.54,28.13l-8.46,2.19c-1.05-1.06,3.61-25.16,3.65-29.11.05-4.51-3.09-4.49-2.97-5.9.23-2.87,9.78-5.82,12.52-5.21h0Z"/>
  <path class="st0" d="M48.25,40.82c-3.79.58-5.66-3.53-8.81-5.3-3.47-1.96-7.93-3.15-11.04.16-5.91,6.31,8.62,10.5,12.44,12.84,12.36,7.57,5.62,19.95-6.26,21.56-3.9.53-15.31.49-17.83-2.87-1.36-1.82-4.18-14.22,1.22-10.22,1.62,1.21,3.86,5.23,6.3,6.9,3.93,2.69,14.01,3.91,14.21-2.47.25-7.77-22.2-8.28-20.12-21.36,1.53-9.62,15.55-11.81,23.31-9.79,5.53,1.44,6.74,5.2,6.57,10.54h.01Z"/>
</svg>