<?xml version="1.0" encoding="UTF-8"?>
<svg id="Layer_1" xmlns="http://www.w3.org/2000/svg" version="1.1" viewBox="0 0 300 105.05">
  <!-- Generator: Adobe Illustrator 29.8.1, SVG Export Plug-In . SVG Version: 2.1.1 Build 2)  -->
  <defs>
    <style>
      .st0 {
        fill: #fff;
      }
    </style>
  </defs>
  <path class="st0" d="M299.77,0v105.05H.23V0h299.55ZM62.06,37.21l3.54-24.82c-1.44-2.93-12.77,2.01-13.35,3.37-1.26,2.94,4.05,2.76,3.26,6.13-1.05,14.56-5.89,30.73-6.67,45.06-.31,5.72,5.29,2.77,8.7,1.47l2.39-13.82,4.26-.98c3.54,6.92,6.08,18.64,16.63,16.47,2.16-.45,6.9-4.45,6.41-6.72-.58-2.65-3.57.96-5.02.87-3.85-.22-9.22-8.62-9.93-12.25,6.29-3.15,13.69-6.71,13.78-14.78,1.25.39,3.06.39,4.17.93,2.62,1.29,6.57,14.37,7.53,17.68,1.92,6.58,7.35,22.92-3.14,25.07-8.34,1.71-6.51-6.83-11.27-7.12-6.55-.4-7.23,10.09-.74,12.2,20.99,6.84,40.17-30.29,41.79-46.73.55-5.57-.88-13.23-7.93-8.53-5.86,3.91-.34,7.99.52,12.47,1.42,7.4-4.1,15.73-6.94,22.24l-1.25-.83c-.99-4.24-8.8-33.13-10.73-34.29-3.68-2.21-9.56,3.07-12.31,5.12-2.5-7.44-12.48-6.4-17.91-2.9l-5.81,4.69ZM210.93,61.83l-4.49,1.84-1.43-1.04,7.09-49.18c-.45-4.09-12.35.68-13.21,1.96-1.84,2.74.91,2.83,1.78,4.15,1.86,2.86-.83,8.86-.54,12.24-12.27-5.93-25.34,1.65-29.87,13.65-4.49,11.91-1.37,26.41,13.97,24.77,5.03-.54,7.65-3.84,11.4-6.61-.19,10.87,15.9,7.22,15.31-1.79ZM48.25,40.82c.18-5.34-1.03-9.1-6.57-10.54-7.76-2.02-21.77.16-23.31,9.79-2.09,13.08,20.36,13.59,20.12,21.36-.2,6.38-10.29,5.16-14.21,2.47-2.44-1.67-4.67-5.7-6.3-6.9-5.39-4.01-2.58,8.4-1.22,10.22,2.51,3.36,13.93,3.4,17.83,2.87,11.88-1.61,18.62-13.99,6.26-21.56-3.82-2.34-18.35-6.53-12.44-12.84,3.11-3.32,7.56-2.12,11.04-.16,3.15,1.77,5.02,5.88,8.81,5.3ZM252.36,48.62c1.89-24.99-30.44-23.86-38.72-4.79-11.87,27.34,24.81,36.1,36.21,13.99l2.5-6.2c-1.12,16.04,14.59,22.85,28.02,16.31,2.13-1.04,9.1-6.32,8.6-8.8-.57-2.8-5.8,2.04-6.98,2.62-14.05,6.8-23.62-4.62-19.12-18.52,1.92-5.94,9.43-12.86,15.26-7.49,3.88,3.58-.05,15.12,7.87,12.61,5.64-1.78,4-10.91.6-14.47-8.78-9.22-26.67-2.48-31.47,8.2l-2.76,6.53ZM137.7,30.01c-2.74-.61-12.29,2.34-12.52,5.21-.12,1.41,3.02,1.39,2.97,5.9-.04,3.95-4.7,28.05-3.65,29.11l8.46-2.19c2.09-9.19,2.94-20.78,9.54-28.13,2.32-2.58,7.55-6.12,10.5-2.67,3.21,3.75-.37,21.21.32,27.3,1.13,9.94,15.24,5.58,15-2.7l-4.52,1.81c-2.2-.02-1.54-5.16-1.47-6.91.39-10.19,5.26-28.11-11.11-26.71-7.09.61-10.59,5.85-14.71,10.8l1.2-10.81Z"/>
  <path d="M62.06,37.21l5.81-4.69c5.43-3.5,15.41-4.54,17.91,2.9,2.76-2.04,8.63-7.33,12.31-5.12,1.93,1.16,9.74,30.05,10.73,34.29l1.25.83c2.84-6.51,8.36-14.84,6.94-22.24-.86-4.48-6.38-8.56-.52-12.47,7.04-4.7,8.48,2.96,7.93,8.53-1.61,16.44-20.8,53.58-41.79,46.73-6.48-2.11-5.8-12.61.74-12.2,4.76.29,2.92,8.83,11.27,7.12,10.49-2.15,5.05-18.49,3.14-25.07-.96-3.31-4.91-16.4-7.53-17.68-1.11-.54-2.92-.54-4.17-.93-.08,8.07-7.49,11.63-13.78,14.78.71,3.63,6.08,12.03,9.93,12.25,1.45.08,4.44-3.52,5.02-.87.49,2.27-4.24,6.27-6.41,6.72-10.55,2.18-13.1-9.54-16.63-16.47l-4.26.98-2.39,13.82c-3.41,1.3-9.01,4.25-8.7-1.47.78-14.32,5.62-30.5,6.67-45.06.79-3.37-4.53-3.2-3.26-6.13.58-1.36,11.91-6.3,13.35-3.37l-3.54,24.82ZM76.29,36.8c-6.46-5.45-16.17,7.37-16.03,13.62,5.05,1.44,23.4-7.4,16.03-13.62Z"/>
  <path d="M252.36,48.62l2.76-6.53c4.81-10.68,22.69-17.41,31.47-8.2,3.4,3.57,5.04,12.69-.6,14.47-7.91,2.5-3.98-9.03-7.87-12.61-5.83-5.38-13.34,1.54-15.26,7.49-4.49,13.9,5.07,25.32,19.12,18.52,1.18-.57,6.41-5.42,6.98-2.62.5,2.48-6.48,7.76-8.6,8.8-13.43,6.54-29.15-.27-28.02-16.31l-2.5,6.2c-11.4,22.11-48.08,13.35-36.21-13.99,8.28-19.07,40.61-20.2,38.72,4.79ZM236.54,63.42c6.74-6.27,9.82-30.38-2.94-29.66-14.43.81-17.93,34.6-1.99,32.24,1.25-.19,4.01-1.71,4.94-2.58Z"/>
  <path d="M210.93,61.83c.59,9.01-15.5,12.67-15.31,1.79-3.74,2.77-6.36,6.07-11.4,6.61-15.34,1.65-18.46-12.86-13.97-24.77,4.53-12,17.6-19.58,29.87-13.65-.29-3.39,2.41-9.39.54-12.24-.87-1.33-3.62-1.41-1.78-4.15.86-1.28,12.76-6.05,13.21-1.96l-7.09,49.18,1.43,1.04,4.49-1.84ZM180.52,62.23c12.58,12.21,27.62-30.01,8.49-28.03-9.63,1-14.75,21.96-8.49,28.03Z"/>
  <path d="M137.7,30.01l-1.2,10.81c4.12-4.95,7.62-10.19,14.71-10.8,16.37-1.4,11.5,16.52,11.11,26.71-.07,1.75-.73,6.88,1.47,6.91l4.52-1.81c.24,8.28-13.88,12.64-15,2.7-.69-6.09,2.89-23.55-.32-27.3-2.95-3.45-8.18.09-10.5,2.67-6.6,7.35-7.44,18.94-9.54,28.13l-8.46,2.19c-1.05-1.06,3.61-25.16,3.65-29.11.05-4.51-3.09-4.49-2.97-5.9.23-2.87,9.78-5.82,12.52-5.21Z"/>
  <path d="M48.25,40.82c-3.79.58-5.66-3.53-8.81-5.3-3.47-1.96-7.93-3.15-11.04.16-5.91,6.31,8.62,10.5,12.44,12.84,12.36,7.57,5.62,19.95-6.26,21.56-3.9.53-15.31.49-17.83-2.87-1.36-1.82-4.18-14.22,1.22-10.22,1.62,1.21,3.86,5.23,6.3,6.9,3.93,2.69,14.01,3.91,14.21-2.47.25-7.77-22.2-8.28-20.12-21.36,1.53-9.62,15.55-11.81,23.31-9.79,5.53,1.44,6.74,5.2,6.57,10.54Z"/>
  <path class="st0" d="M76.29,36.8c7.37,6.22-10.99,15.06-16.03,13.62-.13-6.26,9.58-19.07,16.03-13.62Z"/>
  <path class="st0" d="M236.54,63.42c-.93.86-3.68,2.39-4.94,2.58-15.93,2.37-12.43-31.42,1.99-32.24,12.76-.72,9.69,23.39,2.94,29.66Z"/>
  <path class="st0" d="M180.52,62.23c-6.25-6.07-1.14-27.03,8.49-28.03,19.13-1.99,4.09,40.24-8.49,28.03Z"/>
</svg>